<?xml version="1.0" encoding="UTF-8" ?>
<svg xmlns="http://www.w3.org/2000/svg" xmlns:xlink="http://www.w3.org/1999/xlink" width="955pt" height="586pt" viewBox="0.00 0.00 955.00 586.16">
<g id="graph0" class="graph" transform="scale(1 1) rotate(0) translate(4 582.1564)">
<title>%0</title>
<polygon fill="#ffffff" stroke="transparent" points="-4,4 -4,-582.1564 951,-582.1564 951,4 -4,4"/>
<g id="clust2" class="cluster">
<title>cluster_2</title>
<polygon fill="#ffffff" stroke="transparent" points="274,-444.6173 274,-497.3869 826,-497.3869 826,-444.6173 274,-444.6173"/>
</g>
<g id="clust7" class="cluster">
<title>cluster_7</title>
<polygon fill="#ffffff" stroke="transparent" points="142,-80.7696 142,-133.5391 660,-133.5391 660,-80.7696 142,-80.7696"/>
</g>
<g id="clust8" class="cluster">
<title>cluster_8</title>
<polygon fill="#ffffff" stroke="transparent" points="417,-8 417,-60.7696 579,-60.7696 579,-8 417,-8"/>
</g>
<g id="clust3" class="cluster">
<title>cluster_3</title>
<polygon fill="#ffffff" stroke="transparent" points="535,-371.8478 535,-424.6173 939,-424.6173 939,-371.8478 535,-371.8478"/>
</g>
<g id="clust1" class="cluster">
<title>cluster_1</title>
<polygon fill="#ffffff" stroke="transparent" points="481,-517.3869 481,-570.1564 621,-570.1564 621,-517.3869 481,-517.3869"/>
</g>
<g id="clust4" class="cluster">
<title>cluster_4</title>
<polygon fill="#ffffff" stroke="transparent" points="337,-299.0782 337,-351.8478 826,-351.8478 826,-299.0782 337,-299.0782"/>
</g>
<g id="clust5" class="cluster">
<title>cluster_5</title>
<polygon fill="#ffffff" stroke="transparent" points="8,-226.3087 8,-279.0782 650,-279.0782 650,-226.3087 8,-226.3087"/>
</g>
<g id="clust6" class="cluster">
<title>cluster_6</title>
<polygon fill="#ffffff" stroke="transparent" points="334,-153.5391 334,-206.3087 819,-206.3087 819,-153.5391 334,-153.5391"/>
</g>
<!-- node1 -->
<g id="node1" class="node">
<title>node1</title>
<ellipse fill="#e2e8f0" stroke="#e2e8f0" cx="551" cy="-543.7716" rx="62.064" ry="18.2703"/>
<text text-anchor="middle" x="551" y="-539.2716" font-family="Segoe UI" font-size="15.00" fill="#000000">Joel Embiid</text>
</g>
<!-- node2 -->
<g id="node2" class="node">
<title>node2</title>
<ellipse fill="#e2e8f0" stroke="#e2e8f0" cx="348" cy="-471.0021" rx="66.275" ry="18.2703"/>
<text text-anchor="middle" x="348" y="-466.5021" font-family="Segoe UI" font-size="15.00" fill="#000000">Luka Doncic</text>
</g>
<!-- node1&#45;&gt;node2 -->
<g id="edge1" class="edge">
<title>node1-&gt;node2</title>
<path fill="none" stroke="#4fd1c5" d="M511.3777,-529.5682C479.1043,-517.9992 433.3344,-501.592 398.4457,-489.0854"/>
<polygon fill="#4fd1c5" stroke="#4fd1c5" points="388.9141,-485.6686 399.846,-484.807 393.6208,-487.3558 398.3275,-489.0431 398.3275,-489.0431 398.3275,-489.0431 393.6208,-487.3558 396.809,-493.2791 388.9141,-485.6686 388.9141,-485.6686"/>
</g>
<!-- node4 -->
<g id="node4" class="node">
<title>node4</title>
<ellipse fill="#e2e8f0" stroke="#e2e8f0" cx="551" cy="-471.0021" rx="118.6341" ry="18.2703"/>
<text text-anchor="middle" x="551" y="-466.5021" font-family="Segoe UI" font-size="15.00" fill="#000000">Shai Gilgeous-Alexander</text>
</g>
<!-- node1&#45;&gt;node4 -->
<g id="edge2" class="edge">
<title>node1-&gt;node4</title>
<path fill="none" stroke="#4fd1c5" d="M551,-525.0317C551,-517.2476 551,-508.0419 551,-499.4556"/>
<polygon fill="#4fd1c5" stroke="#4fd1c5" points="551,-489.4266 555.5001,-499.4266 551,-494.4266 551.0001,-499.4266 551.0001,-499.4266 551.0001,-499.4266 551,-494.4266 546.5001,-499.4267 551,-489.4266 551,-489.4266"/>
</g>
<!-- node14 -->
<g id="node14" class="node">
<title>node14</title>
<ellipse fill="#e2e8f0" stroke="#e2e8f0" cx="753" cy="-471.0021" rx="65.44" ry="18.2703"/>
<text text-anchor="middle" x="753" y="-466.5021" font-family="Segoe UI" font-size="15.00" fill="#000000">Nikola Jokic</text>
</g>
<!-- node1&#45;&gt;node14 -->
<g id="edge3" class="edge">
<title>node1-&gt;node14</title>
<path fill="none" stroke="#4fd1c5" d="M590.9087,-529.3947C623.0685,-517.8093 668.4651,-501.4554 703.0384,-489.0005"/>
<polygon fill="#4fd1c5" stroke="#4fd1c5" points="712.4828,-485.5982 704.5998,-493.2212 707.7787,-487.2929 703.0747,-488.9875 703.0747,-488.9875 703.0747,-488.9875 707.7787,-487.2929 701.5495,-484.7539 712.4828,-485.5982 712.4828,-485.5982"/>
</g>
<!-- node3 -->
<g id="node3" class="node">
<title>node3</title>
<ellipse fill="#e2e8f0" stroke="#e2e8f0" cx="815" cy="-398.2325" rx="115.7897" ry="18.2703"/>
<text text-anchor="middle" x="815" y="-393.7325" font-family="Segoe UI" font-size="15.00" fill="#000000">Giannis Antetokounmpo</text>
</g>
<!-- node2&#45;&gt;node3 -->
<g id="edge4" class="edge">
<title>node2-&gt;node3</title>
<path fill="none" stroke="#4fd1c5" d="M385.2167,-455.7351C397.1024,-451.4514 410.4359,-447.2496 423,-444.6173 539.4704,-420.2158 572.1885,-441.3873 690,-424.6173 706.3657,-422.2877 723.7972,-419.0782 740.2868,-415.6985"/>
<polygon fill="#4fd1c5" stroke="#4fd1c5" points="750.4142,-413.5786 741.5483,-420.0321 745.5202,-414.6031 740.6263,-415.6276 740.6263,-415.6276 740.6263,-415.6276 745.5202,-414.6031 739.7043,-411.223 750.4142,-413.5786 750.4142,-413.5786"/>
</g>
<!-- node9 -->
<g id="node9" class="node">
<title>node9</title>
<ellipse fill="#e2e8f0" stroke="#e2e8f0" cx="429" cy="-252.6934" rx="71.2149" ry="18.2703"/>
<text text-anchor="middle" x="429" y="-248.1934" font-family="Segoe UI" font-size="15.00" fill="#000000">Devin Booker</text>
</g>
<!-- node2&#45;&gt;node9 -->
<g id="edge5" class="edge">
<title>node2-&gt;node9</title>
<path fill="none" stroke="#4fd1c5" d="M339.7076,-452.7548C325.9049,-419.3966 302.5854,-347.5526 333,-299.0782 341.2315,-285.9589 354.3375,-276.4604 368.2523,-269.6174"/>
<polygon fill="#4fd1c5" stroke="#4fd1c5" points="377.47,-265.4925 370.1803,-273.6847 372.9061,-267.5349 368.3422,-269.5772 368.3422,-269.5772 368.3422,-269.5772 372.9061,-267.5349 366.5042,-265.4697 377.47,-265.4925 377.47,-265.4925"/>
</g>
<!-- node16 -->
<g id="node16" class="node">
<title>node16</title>
<ellipse fill="#e2e8f0" stroke="#e2e8f0" cx="746" cy="-325.463" rx="72.0637" ry="18.2703"/>
<text text-anchor="middle" x="746" y="-320.963" font-family="Segoe UI" font-size="15.00" fill="#000000">LeBron James</text>
</g>
<!-- node2&#45;&gt;node16 -->
<g id="edge6" class="edge">
<title>node2-&gt;node16</title>
<path fill="none" stroke="#4fd1c5" d="M372.7716,-453.9075C406.803,-431.3059 470.6786,-391.9953 531,-371.8478 588.1137,-352.7716 606.3915,-365.6652 665,-351.8478 674.7167,-349.557 684.9407,-346.6399 694.729,-343.586"/>
<polygon fill="#4fd1c5" stroke="#4fd1c5" points="704.337,-340.5047 696.189,-347.8436 699.5759,-342.0316 694.8147,-343.5586 694.8147,-343.5586 694.8147,-343.5586 699.5759,-342.0316 693.4405,-339.2735 704.337,-340.5047 704.337,-340.5047"/>
</g>
<!-- node17 -->
<g id="node17" class="node">
<title>node17</title>
<ellipse fill="#e2e8f0" stroke="#e2e8f0" cx="276" cy="-252.6934" rx="64.0634" ry="18.2703"/>
<text text-anchor="middle" x="276" y="-248.1934" font-family="Segoe UI" font-size="15.00" fill="#000000">Kyrie Irving</text>
</g>
<!-- node2&#45;&gt;node17 -->
<g id="edge7" class="edge">
<title>node2-&gt;node17</title>
<path fill="none" stroke="#4fd1c5" d="M325.6962,-453.2889C317.2668,-445.4084 308.4122,-435.4589 303,-424.6173 279.8249,-378.1931 275.5926,-316.6854 275.3174,-281.2233"/>
<polygon fill="#4fd1c5" stroke="#4fd1c5" points="275.3424,-271.0996 279.8176,-281.1107 275.33,-276.0995 275.3176,-281.0995 275.3176,-281.0995 275.3176,-281.0995 275.33,-276.0995 270.8176,-281.0884 275.3424,-271.0996 275.3424,-271.0996"/>
</g>
<!-- node18 -->
<g id="node18" class="node">
<title>node18</title>
<ellipse fill="#e2e8f0" stroke="#e2e8f0" cx="580" cy="-325.463" rx="75.655" ry="18.2703"/>
<text text-anchor="middle" x="580" y="-320.963" font-family="Segoe UI" font-size="15.00" fill="#000000">Anthony Davis</text>
</g>
<!-- node3&#45;&gt;node18 -->
<g id="edge8" class="edge">
<title>node3-&gt;node18</title>
<path fill="none" stroke="#4fd1c5" d="M761.8892,-381.8242C733.1962,-372.9558 697.1561,-361.8104 665,-351.8478 655.7984,-348.9969 646.0375,-345.9698 636.5353,-343.0214"/>
<polygon fill="#4fd1c5" stroke="#4fd1c5" points="626.7611,-339.9879 637.6456,-338.6543 631.5364,-341.47 636.3117,-342.952 636.3117,-342.952 636.3117,-342.952 631.5364,-341.47 634.9779,-347.2498 626.7611,-339.9879 626.7611,-339.9879"/>
</g>
<!-- node19 -->
<g id="node19" class="node">
<title>node19</title>
<ellipse fill="#e2e8f0" stroke="#e2e8f0" cx="735" cy="-179.9239" rx="76.3108" ry="18.2703"/>
<text text-anchor="middle" x="735" y="-175.4239" font-family="Segoe UI" font-size="15.00" fill="#000000">Damian Lillard</text>
</g>
<!-- node3&#45;&gt;node19 -->
<g id="edge9" class="edge">
<title>node3-&gt;node19</title>
<path fill="none" stroke="#4fd1c5" d="M822.9346,-379.8317C830.5129,-359.5462 839.4863,-326.1935 830,-299.0782 816.8916,-261.6098 786.516,-227.1314 763.6162,-205.0086"/>
<polygon fill="#4fd1c5" stroke="#4fd1c5" points="756.1725,-197.9934 766.5362,-201.5771 759.8112,-201.4226 763.4499,-204.8519 763.4499,-204.8519 763.4499,-204.8519 759.8112,-201.4226 760.3635,-208.1268 756.1725,-197.9934 756.1725,-197.9934"/>
</g>
<!-- node5 -->
<g id="node5" class="node">
<title>node5</title>
<ellipse fill="#e2e8f0" stroke="#e2e8f0" cx="612" cy="-398.2325" rx="69.1704" ry="18.2703"/>
<text text-anchor="middle" x="612" y="-393.7325" font-family="Segoe UI" font-size="15.00" fill="#000000">Kevin Durant</text>
</g>
<!-- node4&#45;&gt;node5 -->
<g id="edge10" class="edge">
<title>node4-&gt;node5</title>
<path fill="none" stroke="#4fd1c5" d="M566.3929,-452.6393C573.5996,-444.0421 582.3117,-433.649 590.1823,-424.2598"/>
<polygon fill="#4fd1c5" stroke="#4fd1c5" points="596.8234,-416.3374 593.8478,-426.8919 593.6113,-420.1692 590.3992,-424.001 590.3992,-424.001 590.3992,-424.001 593.6113,-420.1692 586.9506,-421.1102 596.8234,-416.3374 596.8234,-416.3374"/>
</g>
<!-- node4&#45;&gt;node18 -->
<g id="edge11" class="edge">
<title>node4-&gt;node18</title>
<path fill="none" stroke="#4fd1c5" d="M540.8731,-452.4118C531.1651,-431.9605 519.5457,-398.4633 531,-371.8478 534.528,-363.6501 540.296,-356.2235 546.6583,-349.8351"/>
<polygon fill="#4fd1c5" stroke="#4fd1c5" points="554.3014,-342.8285 549.9708,-352.9031 550.6157,-346.2073 546.93,-349.586 546.93,-349.586 546.93,-349.586 550.6157,-346.2073 543.8891,-346.2689 554.3014,-342.8285 554.3014,-342.8285"/>
</g>
<!-- node8 -->
<g id="node8" class="node">
<title>node8</title>
<ellipse fill="#e2e8f0" stroke="#e2e8f0" cx="416" cy="-325.463" rx="70.5459" ry="18.2703"/>
<text text-anchor="middle" x="416" y="-320.963" font-family="Segoe UI" font-size="15.00" fill="#000000">Jayson Tatum</text>
</g>
<!-- node5&#45;&gt;node8 -->
<g id="edge12" class="edge">
<title>node5-&gt;node8</title>
<path fill="none" stroke="#4fd1c5" d="M571.3887,-383.1546C540.7724,-371.7877 498.6181,-356.1369 465.9395,-344.0042"/>
<polygon fill="#4fd1c5" stroke="#4fd1c5" points="456.5593,-340.5216 467.5003,-339.7836 461.2467,-342.2619 465.934,-344.0022 465.934,-344.0022 465.934,-344.0022 461.2467,-342.2619 464.3677,-348.2209 456.5593,-340.5216 456.5593,-340.5216"/>
</g>
<!-- node5&#45;&gt;node16 -->
<g id="edge13" class="edge">
<title>node5-&gt;node16</title>
<path fill="none" stroke="#4fd1c5" d="M642.7423,-381.5377C661.504,-371.3491 685.6938,-358.2126 705.9436,-347.2158"/>
<polygon fill="#4fd1c5" stroke="#4fd1c5" points="714.9367,-342.3321 708.2964,-351.0589 710.5428,-344.7183 706.1489,-347.1044 706.1489,-347.1044 706.1489,-347.1044 710.5428,-344.7183 704.0014,-343.1499 714.9367,-342.3321 714.9367,-342.3321"/>
</g>
<!-- node6 -->
<g id="node6" class="node">
<title>node6</title>
<ellipse fill="#e2e8f0" stroke="#e2e8f0" cx="105" cy="-252.6934" rx="88.5713" ry="18.2703"/>
<text text-anchor="middle" x="105" y="-248.1934" font-family="Segoe UI" font-size="15.00" fill="#000000">Donovan Mitchell</text>
</g>
<!-- node13 -->
<g id="node13" class="node">
<title>node13</title>
<ellipse fill="#e2e8f0" stroke="#e2e8f0" cx="238" cy="-107.1543" rx="88.3875" ry="18.2703"/>
<text text-anchor="middle" x="238" y="-102.6543" font-family="Segoe UI" font-size="15.00" fill="#000000">Anthony Edwards</text>
</g>
<!-- node6&#45;&gt;node13 -->
<g id="edge14" class="edge">
<title>node6-&gt;node13</title>
<path fill="none" stroke="#4fd1c5" d="M121.5756,-234.5551C144.8717,-209.0627 187.431,-162.491 214.1336,-133.2708"/>
<polygon fill="#4fd1c5" stroke="#4fd1c5" points="221.2155,-125.5213 217.7914,-135.9389 217.8425,-129.2122 214.4695,-132.9032 214.4695,-132.9032 214.4695,-132.9032 217.8425,-129.2122 211.1477,-129.8675 221.2155,-125.5213 221.2155,-125.5213"/>
</g>
<!-- node7 -->
<g id="node7" class="node">
<title>node7</title>
<ellipse fill="#e2e8f0" stroke="#e2e8f0" cx="414" cy="-179.9239" rx="71.9011" ry="18.2703"/>
<text text-anchor="middle" x="414" y="-175.4239" font-family="Segoe UI" font-size="15.00" fill="#000000">Jalen Brunson</text>
</g>
<!-- node10 -->
<g id="node10" class="node">
<title>node10</title>
<ellipse fill="#e2e8f0" stroke="#e2e8f0" cx="417" cy="-107.1543" rx="72.7554" ry="18.2703"/>
<text text-anchor="middle" x="417" y="-102.6543" font-family="Segoe UI" font-size="15.00" fill="#000000">Stephen Curry</text>
</g>
<!-- node7&#45;&gt;node10 -->
<g id="edge15" class="edge">
<title>node7-&gt;node10</title>
<path fill="none" stroke="#4fd1c5" d="M414.7726,-161.1839C415.0935,-153.3999 415.473,-144.1942 415.827,-135.6079"/>
<polygon fill="#4fd1c5" stroke="#4fd1c5" points="416.2404,-125.5789 420.3246,-135.7558 416.0344,-130.5746 415.8284,-135.5704 415.8284,-135.5704 415.8284,-135.5704 416.0344,-130.5746 411.3322,-135.385 416.2404,-125.5789 416.2404,-125.5789"/>
</g>
<!-- node7&#45;&gt;node13 -->
<g id="edge16" class="edge">
<title>node7-&gt;node13</title>
<path fill="none" stroke="#4fd1c5" d="M375.8106,-164.134C349.9457,-153.4398 315.5206,-139.2063 287.548,-127.6406"/>
<polygon fill="#4fd1c5" stroke="#4fd1c5" points="277.9474,-123.6711 288.9081,-123.3335 282.5681,-125.5816 287.1887,-127.4921 287.1887,-127.4921 287.1887,-127.4921 282.5681,-125.5816 285.4693,-131.6507 277.9474,-123.6711 277.9474,-123.6711"/>
</g>
<!-- node15 -->
<g id="node15" class="node">
<title>node15</title>
<ellipse fill="#e2e8f0" stroke="#e2e8f0" cx="580" cy="-107.1543" rx="72.0447" ry="18.2703"/>
<text text-anchor="middle" x="580" y="-102.6543" font-family="Segoe UI" font-size="15.00" fill="#000000">Tyrese Maxey</text>
</g>
<!-- node7&#45;&gt;node15 -->
<g id="edge17" class="edge">
<title>node7-&gt;node15</title>
<path fill="none" stroke="#4fd1c5" d="M450.4294,-163.9543C475.0795,-153.1484 507.8324,-138.7905 534.2402,-127.2141"/>
<polygon fill="#4fd1c5" stroke="#4fd1c5" points="543.6556,-123.0867 536.3036,-131.223 539.0763,-125.0941 534.4969,-127.1016 534.4969,-127.1016 534.4969,-127.1016 539.0763,-125.0941 532.6902,-122.9802 543.6556,-123.0867 543.6556,-123.0867"/>
</g>
<!-- node8&#45;&gt;node6 -->
<g id="edge18" class="edge">
<title>node8-&gt;node6</title>
<path fill="none" stroke="#4fd1c5" d="M360.2189,-314.0891C317.1503,-305.1206 256.1365,-292.0089 203,-279.0782 191.5643,-276.2953 179.4243,-273.1684 167.7261,-270.0664"/>
<polygon fill="#4fd1c5" stroke="#4fd1c5" points="158.0287,-267.4747 168.8515,-265.7093 162.8591,-268.7657 167.6896,-270.0567 167.6896,-270.0567 167.6896,-270.0567 162.8591,-268.7657 166.5277,-274.4041 158.0287,-267.4747 158.0287,-267.4747"/>
</g>
<!-- node8&#45;&gt;node9 -->
<g id="edge19" class="edge">
<title>node8-&gt;node9</title>
<path fill="none" stroke="#4fd1c5" d="M419.3478,-306.723C420.7384,-298.939 422.383,-289.7333 423.9169,-281.147"/>
<polygon fill="#4fd1c5" stroke="#4fd1c5" points="425.7085,-271.118 428.3797,-281.7535 424.8292,-276.0401 423.9498,-280.9621 423.9498,-280.9621 423.9498,-280.9621 424.8292,-276.0401 419.52,-280.1707 425.7085,-271.118 425.7085,-271.118"/>
</g>
<!-- node8&#45;&gt;node17 -->
<g id="edge20" class="edge">
<title>node8-&gt;node17</title>
<path fill="none" stroke="#4fd1c5" d="M384.2318,-308.9504C364.0428,-298.4565 337.7332,-284.7813 316.1092,-273.5415"/>
<polygon fill="#4fd1c5" stroke="#4fd1c5" points="307.1602,-268.89 318.1086,-269.5092 311.5967,-271.196 316.0332,-273.502 316.0332,-273.502 316.0332,-273.502 311.5967,-271.196 313.9577,-277.4949 307.1602,-268.89 307.1602,-268.89"/>
</g>
<!-- node9&#45;&gt;node7 -->
<g id="edge21" class="edge">
<title>node9-&gt;node7</title>
<path fill="none" stroke="#4fd1c5" d="M425.2149,-234.3306C423.593,-226.4624 421.661,-217.0898 419.8614,-208.3593"/>
<polygon fill="#4fd1c5" stroke="#4fd1c5" points="417.8361,-198.534 424.2624,-207.4195 418.8456,-203.431 419.855,-208.328 419.855,-208.328 419.855,-208.328 418.8456,-203.431 415.4477,-209.2366 417.8361,-198.534 417.8361,-198.534"/>
</g>
<!-- node11 -->
<g id="node11" class="node">
<title>node11</title>
<ellipse fill="#e2e8f0" stroke="#e2e8f0" cx="498" cy="-34.3848" rx="72.7342" ry="18.2703"/>
<text text-anchor="middle" x="498" y="-29.8848" font-family="Segoe UI" font-size="15.00" fill="#000000">De'Aaron Fox</text>
</g>
<!-- node10&#45;&gt;node11 -->
<g id="edge22" class="edge">
<title>node10-&gt;node11</title>
<path fill="none" stroke="#4fd1c5" d="M437.0225,-89.1663C447.1256,-80.0898 459.536,-68.9404 470.5175,-59.0747"/>
<polygon fill="#4fd1c5" stroke="#4fd1c5" points="478.2078,-52.1658 473.7763,-62.1964 474.4884,-55.5074 470.7689,-58.8489 470.7689,-58.8489 470.7689,-58.8489 474.4884,-55.5074 467.7615,-55.5014 478.2078,-52.1658 478.2078,-52.1658"/>
</g>
<!-- node12 -->
<g id="node12" class="node">
<title>node12</title>
<ellipse fill="#e2e8f0" stroke="#e2e8f0" cx="580" cy="-252.6934" rx="62.0259" ry="18.2703"/>
<text text-anchor="middle" x="580" y="-248.1934" font-family="Segoe UI" font-size="15.00" fill="#000000">Trae Young</text>
</g>
<!-- node13&#45;&gt;node11 -->
<g id="edge23" class="edge">
<title>node13-&gt;node11</title>
<path fill="none" stroke="#4fd1c5" d="M290.9283,-92.3406C333.9958,-80.2867 394.726,-63.2894 439.2833,-50.8186"/>
<polygon fill="#4fd1c5" stroke="#4fd1c5" points="449.1008,-48.0708 440.6837,-55.0996 444.2858,-49.4185 439.4708,-50.7662 439.4708,-50.7662 439.4708,-50.7662 444.2858,-49.4185 438.2579,-46.4327 449.1008,-48.0708 449.1008,-48.0708"/>
</g>
<!-- node14&#45;&gt;node3 -->
<g id="edge24" class="edge">
<title>node14-&gt;node3</title>
<path fill="none" stroke="#4fd1c5" d="M768.3258,-453.0141C775.7218,-444.3334 784.7331,-433.7568 792.8582,-424.2205"/>
<polygon fill="#4fd1c5" stroke="#4fd1c5" points="799.4198,-416.519 796.3598,-427.0493 796.1771,-420.325 792.9344,-424.1309 792.9344,-424.1309 792.9344,-424.1309 796.1771,-420.325 789.5091,-421.2125 799.4198,-416.519 799.4198,-416.519"/>
</g>
<!-- node14&#45;&gt;node5 -->
<g id="edge25" class="edge">
<title>node14-&gt;node5</title>
<path fill="none" stroke="#4fd1c5" d="M721.7075,-454.8522C701.4042,-444.3737 674.7395,-430.6121 652.7823,-419.2801"/>
<polygon fill="#4fd1c5" stroke="#4fd1c5" points="643.6926,-414.589 654.6427,-415.1764 648.1357,-416.8821 652.5789,-419.1752 652.5789,-419.1752 652.5789,-419.1752 648.1357,-416.8821 650.5151,-423.1741 643.6926,-414.589 643.6926,-414.589"/>
</g>
<!-- node15&#45;&gt;node11 -->
<g id="edge26" class="edge">
<title>node15-&gt;node11</title>
<path fill="none" stroke="#4fd1c5" d="M559.7303,-89.1663C549.5024,-80.0898 536.9389,-68.9404 525.8218,-59.0747"/>
<polygon fill="#4fd1c5" stroke="#4fd1c5" points="518.0365,-52.1658 528.5029,-55.4376 521.7763,-55.4846 525.516,-58.8034 525.516,-58.8034 525.516,-58.8034 521.7763,-55.4846 522.5291,-62.1692 518.0365,-52.1658 518.0365,-52.1658"/>
</g>
<!-- node16&#45;&gt;node10 -->
<g id="edge27" class="edge">
<title>node16-&gt;node10</title>
<path fill="none" stroke="#4fd1c5" d="M782.2757,-309.3313C796.1326,-301.7478 811.1841,-291.5915 822,-279.0782 859.5821,-235.5982 892.4754,-195.3077 853,-153.5391 825.9399,-124.907 537.732,-140.7421 499,-133.5391 488.638,-131.6121 477.7665,-128.7464 467.4514,-125.6049"/>
<polygon fill="#4fd1c5" stroke="#4fd1c5" points="457.767,-122.53 468.6599,-121.2672 462.5326,-124.0432 467.2981,-125.5563 467.2981,-125.5563 467.2981,-125.5563 462.5326,-124.0432 465.9363,-129.8453 457.767,-122.53 457.767,-122.53"/>
</g>
<!-- node16&#45;&gt;node12 -->
<g id="edge28" class="edge">
<title>node16-&gt;node12</title>
<path fill="none" stroke="#4fd1c5" d="M709.5706,-309.4934C684.4955,-298.5012 651.0358,-283.8334 624.3996,-272.1569"/>
<polygon fill="#4fd1c5" stroke="#4fd1c5" points="614.9232,-268.0027 625.8885,-267.8963 619.5025,-270.0102 624.0818,-272.0177 624.0818,-272.0177 624.0818,-272.0177 619.5025,-270.0102 622.2751,-276.1391 614.9232,-268.0027 614.9232,-268.0027"/>
</g>
<!-- node16&#45;&gt;node13 -->
<g id="edge29" class="edge">
<title>node16-&gt;node13</title>
<path fill="none" stroke="#4fd1c5" d="M762.554,-307.3647C781.4381,-285.3726 811.2227,-246.2325 823,-206.3087 829.6358,-183.8139 839.2408,-170.4591 823,-153.5391 804.2104,-133.9637 361.8158,-137.6817 335,-133.5391 322.3433,-131.5839 308.9723,-128.5815 296.3365,-125.2931"/>
<polygon fill="#4fd1c5" stroke="#4fd1c5" points="286.3882,-122.609 297.2152,-120.8693 291.2155,-123.9115 296.0429,-125.214 296.0429,-125.214 296.0429,-125.214 291.2155,-123.9115 294.8707,-129.5586 286.3882,-122.609 286.3882,-122.609"/>
</g>
<!-- node16&#45;&gt;node15 -->
<g id="edge30" class="edge">
<title>node16-&gt;node15</title>
<path fill="none" stroke="#4fd1c5" d="M805.4843,-314.8228C843.0737,-306.751 886.6312,-294.434 898,-279.0782 931.1999,-234.2355 934.495,-195.7436 898,-153.5391 882.5608,-135.6845 748.573,-121.166 659.5157,-113.3751"/>
<polygon fill="#4fd1c5" stroke="#4fd1c5" points="649.4286,-112.5045 659.7786,-108.8812 654.4101,-112.9345 659.3916,-113.3645 659.3916,-113.3645 659.3916,-113.3645 654.4101,-112.9345 659.0046,-117.8478 649.4286,-112.5045 649.4286,-112.5045"/>
</g>
<!-- node16&#45;&gt;node19 -->
<g id="edge31" class="edge">
<title>node16-&gt;node19</title>
<path fill="none" stroke="#4fd1c5" d="M744.6068,-307.0304C742.7327,-282.2335 739.3803,-237.8794 737.1731,-208.6759"/>
<polygon fill="#4fd1c5" stroke="#4fd1c5" points="736.4166,-198.6666 741.6575,-208.2989 736.7935,-203.6523 737.1703,-208.6381 737.1703,-208.6381 737.1703,-208.6381 736.7935,-203.6523 732.6831,-208.9773 736.4166,-198.6666 736.4166,-198.6666"/>
</g>
<!-- node20 -->
<g id="node20" class="node">
<title>node20</title>
<ellipse fill="#e2e8f0" stroke="#e2e8f0" cx="572" cy="-179.9239" rx="68.5232" ry="18.2703"/>
<text text-anchor="middle" x="572" y="-175.4239" font-family="Segoe UI" font-size="15.00" fill="#000000">Julius Randle</text>
</g>
<!-- node16&#45;&gt;node20 -->
<g id="edge32" class="edge">
<title>node16-&gt;node20</title>
<path fill="none" stroke="#4fd1c5" d="M736.1549,-307.2041C723.6787,-285.4983 700.348,-249.3258 672,-226.3087 663.1347,-219.1105 640.8034,-208.5434 619.4875,-199.3126"/>
<polygon fill="#4fd1c5" stroke="#4fd1c5" points="610.138,-195.3176 621.1019,-195.1088 614.7359,-197.2823 619.3337,-199.2469 619.3337,-199.2469 619.3337,-199.2469 614.7359,-197.2823 617.5656,-203.385 610.138,-195.3176 610.138,-195.3176"/>
</g>
<!-- node17&#45;&gt;node10 -->
<g id="edge33" class="edge">
<title>node17-&gt;node10</title>
<path fill="none" stroke="#4fd1c5" d="M275.6289,-233.9501C276.196,-212.1077 280.3665,-176.1326 300,-153.5391 308.5149,-143.7404 334.3306,-133.0452 359.5527,-124.3965"/>
<polygon fill="#4fd1c5" stroke="#4fd1c5" points="369.153,-121.1881 361.0949,-128.6258 364.4108,-122.773 359.6686,-124.3578 359.6686,-124.3578 359.6686,-124.3578 364.4108,-122.773 358.2422,-120.0898 369.153,-121.1881 369.153,-121.1881"/>
</g>
<!-- node17&#45;&gt;node13 -->
<g id="edge34" class="edge">
<title>node17-&gt;node13</title>
<path fill="none" stroke="#4fd1c5" d="M270.177,-234.2528C267.5656,-225.7729 264.5144,-215.5625 262,-206.3087 255.5835,-182.6934 249.1021,-155.686 244.495,-135.8272"/>
<polygon fill="#4fd1c5" stroke="#4fd1c5" points="242.2038,-125.8738 248.8324,-134.6094 243.3255,-130.7464 244.4471,-135.6189 244.4471,-135.6189 244.4471,-135.6189 243.3255,-130.7464 240.0618,-136.6284 242.2038,-125.8738 242.2038,-125.8738"/>
</g>
<!-- node17&#45;&gt;node15 -->
<g id="edge35" class="edge">
<title>node17-&gt;node15</title>
<path fill="none" stroke="#4fd1c5" d="M285.5257,-234.1751C300.0033,-206.1837 326.2663,-156.0659 330,-153.5391 361.3197,-132.3436 462.064,-141.6572 499,-133.5391 508.8587,-131.3723 519.2179,-128.4855 529.11,-125.4166"/>
<polygon fill="#4fd1c5" stroke="#4fd1c5" points="538.8106,-122.307 530.6616,-129.6449 534.0492,-123.8333 529.2879,-125.3597 529.2879,-125.3597 529.2879,-125.3597 534.0492,-123.8333 527.9142,-121.0745 538.8106,-122.307 538.8106,-122.307"/>
</g>
<!-- node17&#45;&gt;node19 -->
<g id="edge36" class="edge">
<title>node17-&gt;node19</title>
<path fill="none" stroke="#4fd1c5" d="M312.179,-237.3515C323.7457,-233.0644 336.7338,-228.8794 349,-226.3087 480.2219,-198.8076 518.1822,-230.7947 650,-206.3087 660.7006,-204.3209 671.9478,-201.4296 682.6305,-198.2823"/>
<polygon fill="#4fd1c5" stroke="#4fd1c5" points="692.2507,-195.3386 684.0051,-202.5677 687.4696,-196.8017 682.6884,-198.2647 682.6884,-198.2647 682.6884,-198.2647 687.4696,-196.8017 681.3717,-193.9616 692.2507,-195.3386 692.2507,-195.3386"/>
</g>
<!-- node17&#45;&gt;node20 -->
<g id="edge37" class="edge">
<title>node17-&gt;node20</title>
<path fill="none" stroke="#4fd1c5" d="M313.0457,-237.5951C324.4265,-233.4229 337.0926,-229.2413 349,-226.3087 412.5945,-210.6461 431.2769,-221.4395 495,-206.3087 504.0871,-204.151 513.6146,-201.3487 522.7492,-198.3785"/>
<polygon fill="#4fd1c5" stroke="#4fd1c5" points="532.4678,-195.1122 524.4225,-202.5636 527.7283,-196.7051 522.9888,-198.298 522.9888,-198.298 522.9888,-198.298 527.7283,-196.7051 521.5552,-194.0325 532.4678,-195.1122 532.4678,-195.1122"/>
</g>
<!-- node18&#45;&gt;node12 -->
<g id="edge38" class="edge">
<title>node18-&gt;node12</title>
<path fill="none" stroke="#4fd1c5" d="M580,-306.723C580,-298.939 580,-289.7333 580,-281.147"/>
<polygon fill="#4fd1c5" stroke="#4fd1c5" points="580,-271.118 584.5001,-281.1179 580,-276.118 580.0001,-281.118 580.0001,-281.118 580.0001,-281.118 580,-276.118 575.5001,-281.118 580,-271.118 580,-271.118"/>
</g>
<!-- node18&#45;&gt;node20 -->
<g id="edge39" class="edge">
<title>node18-&gt;node20</title>
<path fill="none" stroke="#4fd1c5" d="M620.3785,-309.7774C633.5024,-302.5238 646.585,-292.4774 654,-279.0782 665.3559,-258.5577 665.8159,-246.5678 654,-226.3087 647.2366,-214.7122 636.3808,-205.7837 624.7522,-199.0044"/>
<polygon fill="#4fd1c5" stroke="#4fd1c5" points="615.764,-194.2305 626.7065,-194.947 620.1798,-196.5759 624.5956,-198.9213 624.5956,-198.9213 624.5956,-198.9213 620.1798,-196.5759 622.4848,-202.8955 615.764,-194.2305 615.764,-194.2305"/>
</g>
<!-- node19&#45;&gt;node11 -->
<g id="edge40" class="edge">
<title>node19-&gt;node11</title>
<path fill="none" stroke="#4fd1c5" d="M726.524,-161.2579C715.3724,-138.8017 693.656,-101.5376 664,-80.7696 637.5743,-62.2637 603.9647,-51.1182 573.9089,-44.4157"/>
<polygon fill="#4fd1c5" stroke="#4fd1c5" points="563.8678,-42.3089 574.5788,-39.9584 568.7612,-43.3357 573.6547,-44.3625 573.6547,-44.3625 573.6547,-44.3625 568.7612,-43.3357 572.7305,-48.7666 563.8678,-42.3089 563.8678,-42.3089"/>
</g>
</g>
</svg>