<svg xmlns="http://www.w3.org/2000/svg" xmlns:xlink="http://www.w3.org/1999/xlink" width="945pt" height="295pt" viewBox="0.00 0.00 945.00 295.08">
<g id="graph0" class="graph" transform="translate(4,291.0799865722656) scale(1)">
<polygon fill="#ffffff" stroke="none" points="-4,4 -4,-291.08 941,-291.08 941,4 -4,4"/>
<g id="clust2" class="cluster">
<title>cluster_2</title>
<polygon fill="#ffffff" stroke="none" points="8,-153.54 8,-206.31 654,-206.31 654,-153.54 8,-153.54"/>
</g>
<g id="clust1" class="cluster">
<title>cluster_1</title>
<polygon fill="#ffffff" stroke="none" points="67,-226.31 67,-279.08 929,-279.08 929,-226.31 67,-226.31"/>
</g>
<g id="clust3" class="cluster">
<title>cluster_3</title>
<polygon fill="#ffffff" stroke="none" points="440,-80.77 440,-133.54 654,-133.54 654,-80.77 440,-80.77"/>
</g>
<g id="clust4" class="cluster">
<title>cluster_4</title>
<polygon fill="#ffffff" stroke="none" points="376,-8 376,-60.77 590,-60.77 590,-8 376,-8"/>
</g>
<!-- node1 -->
<g id="node1" class="node">
<title>node1</title>
<ellipse fill="rgb(226, 232, 240)" stroke="rgb(226, 232, 240)" cx="331" cy="-179.92" rx="27" ry="18.38"/>
<text text-anchor="middle" x="331" y="-175.42" font-family="Segoe UI" font-size="15.00">0</text>
</g>
<!-- node16 -->
<g id="node16" class="node">
<title>node16</title>
<ellipse fill="rgb(226, 232, 240)" stroke="rgb(226, 232, 240)" cx="547" cy="-107.15" rx="27" ry="18.38"/>
<text text-anchor="middle" x="547" y="-102.65" font-family="Segoe UI" font-size="15.00">15</text>
</g>
<!-- node1&#45;&gt;node16 -->
<g id="edge1" class="edge">
<title>node1-&gt;node16</title>
<path fill="none" stroke="#4fd1c5" d="M347.25,-165C353.12,-160.66 360.03,-156.29 367,-153.54 427.1,-129.81 450.9,-157.27 511,-133.54 514.92,-131.99 518.82,-129.93 522.53,-127.65"/>
<polygon fill="#4fd1c5" stroke="#4fd1c5" points="530.75,-122.08 525,-131.42 526.61,-124.89 522.48,-127.69 522.48,-127.69 522.48,-127.69 526.61,-124.89 519.95,-123.97 530.75,-122.08 530.75,-122.08"/>
</g>
<!-- node2 -->
<g id="node2" class="node">
<title>node2</title>
<ellipse fill="rgb(226, 232, 240)" stroke="rgb(226, 232, 240)" cx="547" cy="-179.92" rx="27" ry="18.38"/>
<text text-anchor="middle" x="547" y="-175.42" font-family="Segoe UI" font-size="15.00">1</text>
</g>
<!-- node3 -->
<g id="node3" class="node">
<title>node3</title>
<ellipse fill="rgb(226, 232, 240)" stroke="rgb(226, 232, 240)" cx="403" cy="-179.92" rx="27" ry="18.38"/>
<text text-anchor="middle" x="403" y="-175.42" font-family="Segoe UI" font-size="15.00">2</text>
</g>
<!-- node4 -->
<g id="node4" class="node">
<title>node4</title>
<ellipse fill="rgb(226, 232, 240)" stroke="rgb(226, 232, 240)" cx="259" cy="-179.92" rx="27" ry="18.38"/>
<text text-anchor="middle" x="259" y="-175.42" font-family="Segoe UI" font-size="15.00">3</text>
</g>
<!-- node13 -->
<g id="node13" class="node">
<title>node13</title>
<ellipse fill="rgb(226, 232, 240)" stroke="rgb(226, 232, 240)" cx="411" cy="-34.38" rx="27" ry="18.38"/>
<text text-anchor="middle" x="411" y="-29.88" font-family="Segoe UI" font-size="15.00">12</text>
</g>
<!-- node4&#45;&gt;node13 -->
<g id="edge2" class="edge">
<title>node4-&gt;node13</title>
<path fill="none" stroke="#4fd1c5" d="M274.41,-164.37C301.38,-138.9 357.24,-86.15 388.53,-56.61"/>
<polygon fill="#4fd1c5" stroke="#4fd1c5" points="395.55,-49.98 391.37,-60.11 391.91,-53.41 388.28,-56.84 388.28,-56.84 388.28,-56.84 391.91,-53.41 385.19,-53.57 395.55,-49.98 395.55,-49.98"/>
</g>
<!-- node5 -->
<g id="node5" class="node">
<title>node5</title>
<ellipse fill="rgb(226, 232, 240)" stroke="rgb(226, 232, 240)" cx="462" cy="-252.69" rx="27" ry="18.38"/>
<text text-anchor="middle" x="462" y="-248.19" font-family="Segoe UI" font-size="15.00">4</text>
</g>
<!-- node5&#45;&gt;node3 -->
<g id="edge3" class="edge">
<title>node5-&gt;node3</title>
<path fill="none" stroke="#4fd1c5" d="M449.2,-236.34C441.23,-226.79 430.85,-214.33 421.94,-203.65"/>
<polygon fill="#4fd1c5" stroke="#4fd1c5" points="415.78,-196.25 425.64,-201.05 418.98,-200.09 422.18,-203.93 422.18,-203.93 422.18,-203.93 418.98,-200.09 418.72,-206.81 415.78,-196.25 415.78,-196.25"/>
</g>
<!-- node14 -->
<g id="node14" class="node">
<title>node14</title>
<ellipse fill="rgb(226, 232, 240)" stroke="rgb(226, 232, 240)" cx="187" cy="-179.92" rx="27" ry="18.38"/>
<text text-anchor="middle" x="187" y="-175.42" font-family="Segoe UI" font-size="15.00">13</text>
</g>
<!-- node5&#45;&gt;node14 -->
<g id="edge4" class="edge">
<title>node5-&gt;node14</title>
<path fill="none" stroke="#4fd1c5" d="M445.81,-237.61C439.95,-233.25 433.02,-228.92 426,-226.31 341.03,-194.7 307.97,-237.92 223,-206.31 219.05,-204.84 215.13,-202.82 211.41,-200.57"/>
<polygon fill="#4fd1c5" stroke="#4fd1c5" points="203.19,-195.01 213.99,-196.88 207.33,-197.81 211.47,-200.61 211.47,-200.61 211.47,-200.61 207.33,-197.81 208.95,-204.34 203.19,-195.01 203.19,-195.01"/>
</g>
<!-- node17 -->
<g id="node17" class="node">
<title>node17</title>
<ellipse fill="rgb(226, 232, 240)" stroke="rgb(226, 232, 240)" cx="483" cy="-34.38" rx="27" ry="18.38"/>
<text text-anchor="middle" x="483" y="-29.88" font-family="Segoe UI" font-size="15.00">16</text>
</g>
<!-- node5&#45;&gt;node17 -->
<g id="edge5" class="edge">
<title>node5-&gt;node17</title>
<path fill="none" stroke="#4fd1c5" d="M478.23,-237.71C484.1,-233.37 491.01,-229.01 498,-226.31 531.42,-213.38 634.29,-233.17 658,-206.31 694.93,-164.48 694.54,-122.94 658,-80.77 637.56,-57.18 548,-72.3 519,-60.77 515.08,-59.21 511.18,-57.15 507.48,-54.87"/>
<polygon fill="#4fd1c5" stroke="#4fd1c5" points="499.25,-49.29 510.06,-51.18 503.39,-52.1 507.53,-54.91 507.53,-54.91 507.53,-54.91 503.39,-52.1 505,-58.63 499.25,-49.29 499.25,-49.29"/>
</g>
<!-- node6 -->
<g id="node6" class="node">
<title>node6</title>
<ellipse fill="rgb(226, 232, 240)" stroke="rgb(226, 232, 240)" cx="822" cy="-252.69" rx="27" ry="18.38"/>
<text text-anchor="middle" x="822" y="-248.19" font-family="Segoe UI" font-size="15.00">5</text>
</g>
<!-- node7 -->
<g id="node7" class="node">
<title>node7</title>
<ellipse fill="rgb(226, 232, 240)" stroke="rgb(226, 232, 240)" cx="678" cy="-252.69" rx="27" ry="18.38"/>
<text text-anchor="middle" x="678" y="-248.19" font-family="Segoe UI" font-size="15.00">6</text>
</g>
<!-- node7&#45;&gt;node16 -->
<g id="edge6" class="edge">
<title>node7-&gt;node16</title>
<path fill="none" stroke="#4fd1c5" d="M679.58,-233.96C680.49,-212.14 678.51,-175.31 658,-153.54 634.34,-128.43 614.25,-148.15 583,-133.54 579.26,-131.79 575.49,-129.65 571.88,-127.36"/>
<polygon fill="#4fd1c5" stroke="#4fd1c5" points="563.82,-121.86 574.61,-123.78 567.95,-124.68 572.08,-127.49 572.08,-127.49 572.08,-127.49 567.95,-124.68 569.55,-131.21 563.82,-121.86 563.82,-121.86"/>
</g>
<!-- node8 -->
<g id="node8" class="node">
<title>node8</title>
<ellipse fill="rgb(226, 232, 240)" stroke="rgb(226, 232, 240)" cx="174" cy="-252.69" rx="27" ry="18.38"/>
<text text-anchor="middle" x="174" y="-248.19" font-family="Segoe UI" font-size="15.00">7</text>
</g>
<!-- node8&#45;&gt;node14 -->
<g id="edge7" class="edge">
<title>node8-&gt;node14</title>
<path fill="none" stroke="#4fd1c5" d="M177.21,-234.2C178.66,-226.32 180.41,-216.82 182.02,-208.05"/>
<polygon fill="#4fd1c5" stroke="#4fd1c5" points="183.82,-198.22 186.44,-208.86 182.92,-203.13 182.02,-208.05 182.02,-208.05 182.02,-208.05 182.92,-203.13 177.59,-207.24 183.82,-198.22 183.82,-198.22"/>
</g>
<!-- node9 -->
<g id="node9" class="node">
<title>node9</title>
<ellipse fill="rgb(226, 232, 240)" stroke="rgb(226, 232, 240)" cx="606" cy="-252.69" rx="27" ry="18.38"/>
<text text-anchor="middle" x="606" y="-248.19" font-family="Segoe UI" font-size="15.00">8</text>
</g>
<!-- node10 -->
<g id="node10" class="node">
<title>node10</title>
<ellipse fill="rgb(226, 232, 240)" stroke="rgb(226, 232, 240)" cx="390" cy="-252.69" rx="27" ry="18.38"/>
<text text-anchor="middle" x="390" y="-248.19" font-family="Segoe UI" font-size="15.00">9</text>
</g>
<!-- node10&#45;&gt;node1 -->
<g id="edge8" class="edge">
<title>node10-&gt;node1</title>
<path fill="none" stroke="#4fd1c5" d="M377.2,-236.34C369.23,-226.79 358.85,-214.33 349.94,-203.65"/>
<polygon fill="#4fd1c5" stroke="#4fd1c5" points="343.78,-196.25 353.64,-201.05 346.98,-200.09 350.18,-203.93 350.18,-203.93 350.18,-203.93 346.98,-200.09 346.72,-206.81 343.78,-196.25 343.78,-196.25"/>
</g>
<!-- node10&#45;&gt;node4 -->
<g id="edge9" class="edge">
<title>node10-&gt;node4</title>
<path fill="none" stroke="#4fd1c5" d="M373.06,-238.24C367.24,-234.04 360.54,-229.64 354,-226.31 329.32,-213.76 319.68,-218.86 295,-206.31 291.32,-204.44 287.59,-202.22 283.99,-199.9"/>
<polygon fill="#4fd1c5" stroke="#4fd1c5" points="275.94,-194.38 286.73,-196.32 280.06,-197.2 284.19,-200.03 284.19,-200.03 284.19,-200.03 280.06,-197.2 281.64,-203.74 275.94,-194.38 275.94,-194.38"/>
</g>
<!-- node11 -->
<g id="node11" class="node">
<title>node11</title>
<ellipse fill="rgb(226, 232, 240)" stroke="rgb(226, 232, 240)" cx="534" cy="-252.69" rx="27" ry="18.38"/>
<text text-anchor="middle" x="534" y="-248.19" font-family="Segoe UI" font-size="15.00">10</text>
</g>
<!-- node11&#45;&gt;node2 -->
<g id="edge10" class="edge">
<title>node11-&gt;node2</title>
<path fill="none" stroke="#4fd1c5" d="M537.21,-234.2C538.66,-226.32 540.41,-216.82 542.02,-208.05"/>
<polygon fill="#4fd1c5" stroke="#4fd1c5" points="543.82,-198.22 546.44,-208.86 542.92,-203.13 542.02,-208.05 542.02,-208.05 542.02,-208.05 542.92,-203.13 537.59,-207.24 543.82,-198.22 543.82,-198.22"/>
</g>
<!-- node18 -->
<g id="node18" class="node">
<title>node18</title>
<ellipse fill="rgb(226, 232, 240)" stroke="rgb(226, 232, 240)" cx="619" cy="-179.92" rx="27" ry="18.38"/>
<text text-anchor="middle" x="619" y="-175.42" font-family="Segoe UI" font-size="15.00">17</text>
</g>
<!-- node11&#45;&gt;node18 -->
<g id="edge11" class="edge">
<title>node11-&gt;node18</title>
<path fill="none" stroke="#4fd1c5" d="M550.39,-238.05C563.01,-227.54 580.64,-212.86 594.87,-201.01"/>
<polygon fill="#4fd1c5" stroke="#4fd1c5" points="602.37,-194.77 597.57,-204.63 598.53,-197.97 594.69,-201.17 594.69,-201.17 594.69,-201.17 598.53,-197.97 591.81,-197.71 602.37,-194.77 602.37,-194.77"/>
</g>
<!-- node12 -->
<g id="node12" class="node">
<title>node12</title>
<ellipse fill="rgb(226, 232, 240)" stroke="rgb(226, 232, 240)" cx="246" cy="-252.69" rx="27" ry="18.38"/>
<text text-anchor="middle" x="246" y="-248.19" font-family="Segoe UI" font-size="15.00">11</text>
</g>
<!-- node21 -->
<g id="node21" class="node">
<title>node21</title>
<ellipse fill="rgb(226, 232, 240)" stroke="rgb(226, 232, 240)" cx="475" cy="-179.92" rx="27" ry="18.38"/>
<text text-anchor="middle" x="475" y="-175.42" font-family="Segoe UI" font-size="15.00">20</text>
</g>
<!-- node12&#45;&gt;node21 -->
<g id="edge12" class="edge">
<title>node12-&gt;node21</title>
<path fill="none" stroke="#4fd1c5" d="M262.23,-237.72C268.1,-233.38 275.01,-229.02 282,-226.31 347.57,-200.84 373.43,-231.77 439,-206.31 442.93,-204.78 446.84,-202.74 450.55,-200.47"/>
<polygon fill="#4fd1c5" stroke="#4fd1c5" points="458.77,-194.9 453.01,-204.23 454.63,-197.7 450.49,-200.5 450.49,-200.5 450.49,-200.5 454.63,-197.7 447.97,-196.78 458.77,-194.9 458.77,-194.9"/>
</g>
<!-- node15 -->
<g id="node15" class="node">
<title>node15</title>
<ellipse fill="rgb(226, 232, 240)" stroke="rgb(226, 232, 240)" cx="318" cy="-252.69" rx="27" ry="18.38"/>
<text text-anchor="middle" x="318" y="-248.19" font-family="Segoe UI" font-size="15.00">14</text>
</g>
<!-- node16&#45;&gt;node13 -->
<g id="edge13" class="edge">
<title>node16-&gt;node13</title>
<path fill="none" stroke="#4fd1c5" d="M530.11,-92.61C524.29,-88.4 517.58,-84.02 511,-80.77 484.28,-67.58 473.72,-73.96 447,-60.77 443.3,-58.94 439.55,-56.76 435.95,-54.44"/>
<polygon fill="#4fd1c5" stroke="#4fd1c5" points="427.89,-48.93 438.69,-50.86 432.02,-51.75 436.15,-54.58 436.15,-54.58 436.15,-54.58 432.02,-51.75 433.61,-58.29 427.89,-48.93 427.89,-48.93"/>
</g>
<!-- node27 -->
<g id="node27" class="node">
<title>node27</title>
<ellipse fill="rgb(226, 232, 240)" stroke="rgb(226, 232, 240)" cx="619" cy="-107.15" rx="27" ry="18.38"/>
<text text-anchor="middle" x="619" y="-102.65" font-family="Segoe UI" font-size="15.00">26</text>
</g>
<!-- node18&#45;&gt;node27 -->
<g id="edge14" class="edge">
<title>node18-&gt;node27</title>
<path fill="none" stroke="#4fd1c5" d="M619,-161.07C619,-153.38 619,-144.22 619,-135.7"/>
<polygon fill="#4fd1c5" stroke="#4fd1c5" points="619,-125.76 623.5,-135.76 619,-130.76 619,-135.76 619,-135.76 619,-135.76 619,-130.76 614.5,-135.76 619,-125.76 619,-125.76"/>
</g>
<!-- node19 -->
<g id="node19" class="node">
<title>node19</title>
<ellipse fill="rgb(226, 232, 240)" stroke="rgb(226, 232, 240)" cx="115" cy="-179.92" rx="27" ry="18.38"/>
<text text-anchor="middle" x="115" y="-175.42" font-family="Segoe UI" font-size="15.00">18</text>
</g>
<!-- node20 -->
<g id="node20" class="node">
<title>node20</title>
<ellipse fill="rgb(226, 232, 240)" stroke="rgb(226, 232, 240)" cx="475" cy="-107.15" rx="27" ry="18.38"/>
<text text-anchor="middle" x="475" y="-102.65" font-family="Segoe UI" font-size="15.00">19</text>
</g>
<!-- node19&#45;&gt;node20 -->
<g id="edge15" class="edge">
<title>node19-&gt;node20</title>
<path fill="none" stroke="#4fd1c5" d="M131.25,-165C137.12,-160.66 144.03,-156.3 151,-153.54 249.56,-114.55 376.59,-108.29 438.22,-107.76"/>
<polygon fill="#4fd1c5" stroke="#4fd1c5" points="447.88,-107.72 437.9,-112.26 442.88,-107.74 437.88,-107.76 437.88,-107.76 437.88,-107.76 442.88,-107.74 437.87,-103.26 447.88,-107.72 447.88,-107.72"/>
</g>
<!-- node20&#45;&gt;node17 -->
<g id="edge16" class="edge">
<title>node20-&gt;node17</title>
<path fill="none" stroke="#4fd1c5" d="M476.98,-88.66C477.86,-80.89 478.91,-71.57 479.89,-62.9"/>
<polygon fill="#4fd1c5" stroke="#4fd1c5" points="480.99,-53.17 484.34,-63.61 480.43,-58.14 479.87,-63.11 479.87,-63.11 479.87,-63.11 480.43,-58.14 475.39,-62.6 480.99,-53.17 480.99,-53.17"/>
</g>
<!-- node26 -->
<g id="node26" class="node">
<title>node26</title>
<ellipse fill="rgb(226, 232, 240)" stroke="rgb(226, 232, 240)" cx="555" cy="-34.38" rx="27" ry="18.38"/>
<text text-anchor="middle" x="555" y="-29.88" font-family="Segoe UI" font-size="15.00">25</text>
</g>
<!-- node20&#45;&gt;node26 -->
<g id="edge17" class="edge">
<title>node20-&gt;node26</title>
<path fill="none" stroke="#4fd1c5" d="M490.81,-92.17C502.45,-81.87 518.49,-67.69 531.61,-56.07"/>
<polygon fill="#4fd1c5" stroke="#4fd1c5" points="538.95,-49.58 534.45,-59.58 535.21,-52.89 531.46,-56.21 531.46,-56.21 531.46,-56.21 535.21,-52.89 528.48,-52.84 538.95,-49.58 538.95,-49.58"/>
</g>
<!-- node22 -->
<g id="node22" class="node">
<title>node22</title>
<ellipse fill="rgb(226, 232, 240)" stroke="rgb(226, 232, 240)" cx="102" cy="-252.69" rx="27" ry="18.38"/>
<text text-anchor="middle" x="102" y="-248.19" font-family="Segoe UI" font-size="15.00">21</text>
</g>
<!-- node22&#45;&gt;node19 -->
<g id="edge18" class="edge">
<title>node22-&gt;node19</title>
<path fill="none" stroke="#4fd1c5" d="M105.21,-234.2C106.66,-226.32 108.41,-216.82 110.02,-208.05"/>
<polygon fill="#4fd1c5" stroke="#4fd1c5" points="111.82,-198.22 114.44,-208.86 110.92,-203.13 110.02,-208.05 110.02,-208.05 110.02,-208.05 110.92,-203.13 105.59,-207.24 111.82,-198.22 111.82,-198.22"/>
</g>
<!-- node25 -->
<g id="node25" class="node">
<title>node25</title>
<ellipse fill="rgb(226, 232, 240)" stroke="rgb(226, 232, 240)" cx="43" cy="-179.92" rx="27" ry="18.38"/>
<text text-anchor="middle" x="43" y="-175.42" font-family="Segoe UI" font-size="15.00">24</text>
</g>
<!-- node22&#45;&gt;node25 -->
<g id="edge19" class="edge">
<title>node22-&gt;node25</title>
<path fill="none" stroke="#4fd1c5" d="M89.2,-236.34C81.23,-226.79 70.85,-214.33 61.94,-203.65"/>
<polygon fill="#4fd1c5" stroke="#4fd1c5" points="55.78,-196.25 65.64,-201.05 58.98,-200.09 62.18,-203.93 62.18,-203.93 62.18,-203.93 58.98,-200.09 58.72,-206.81 55.78,-196.25 55.78,-196.25"/>
</g>
<!-- node23 -->
<g id="node23" class="node">
<title>node23</title>
<ellipse fill="rgb(226, 232, 240)" stroke="rgb(226, 232, 240)" cx="750" cy="-252.69" rx="27" ry="18.38"/>
<text text-anchor="middle" x="750" y="-248.19" font-family="Segoe UI" font-size="15.00">22</text>
</g>
<!-- node23&#45;&gt;node21 -->
<g id="edge20" class="edge">
<title>node23-&gt;node21</title>
<path fill="none" stroke="#4fd1c5" d="M733.81,-237.61C727.95,-233.25 721.02,-228.92 714,-226.31 629.03,-194.7 595.97,-237.92 511,-206.31 507.05,-204.84 503.13,-202.82 499.41,-200.57"/>
<polygon fill="#4fd1c5" stroke="#4fd1c5" points="491.19,-195.01 501.99,-196.88 495.33,-197.81 499.47,-200.61 499.47,-200.61 499.47,-200.61 495.33,-197.81 496.95,-204.34 491.19,-195.01 491.19,-195.01"/>
</g>
<!-- node23&#45;&gt;node26 -->
<g id="edge21" class="edge">
<title>node23-&gt;node26</title>
<path fill="none" stroke="#4fd1c5" d="M748.18,-234.03C743.71,-199.73 729.15,-123.72 685,-80.77 659.71,-56.17 620.37,-44.85 591.58,-39.67"/>
<polygon fill="#4fd1c5" stroke="#4fd1c5" points="581.88,-38.09 592.48,-35.26 586.82,-38.89 591.75,-39.7 591.75,-39.7 591.75,-39.7 586.82,-38.89 591.03,-44.14 581.88,-38.09 581.88,-38.09"/>
</g>
<!-- node24 -->
<g id="node24" class="node">
<title>node24</title>
<ellipse fill="rgb(226, 232, 240)" stroke="rgb(226, 232, 240)" cx="894" cy="-252.69" rx="27" ry="18.38"/>
<text text-anchor="middle" x="894" y="-248.19" font-family="Segoe UI" font-size="15.00">23</text>
</g>
<!-- node24&#45;&gt;node27 -->
<g id="edge22" class="edge">
<title>node24-&gt;node27</title>
<path fill="none" stroke="#4fd1c5" d="M876.42,-238.48C870.67,-234.38 864.18,-229.98 858,-226.31 786.17,-183.58 696.77,-142.35 650.32,-121.76"/>
<polygon fill="#4fd1c5" stroke="#4fd1c5" points="641.35,-117.8 652.32,-117.72 645.92,-119.82 650.5,-121.84 650.5,-121.84 650.5,-121.84 645.92,-119.82 648.68,-125.95 641.35,-117.8 641.35,-117.8"/>
</g>
</g>
</svg>